<svg width="40" height="40" viewBox="0 0 40 40" fill="none" xmlns="http://www.w3.org/2000/svg">
<path d="M40 20C40 25.5228 37.7614 30.5228 34.1421 34.1421C30.5228 37.7614 25.5228 40 20 40C14.4772 40 9.47715 37.7614 5.85786 34.1421C2.23858 30.5228 0 25.5228 0 20C0 14.4772 2.23858 9.47715 5.85786 5.85786C9.47715 2.23858 14.4772 0 20 0C25.5228 0 30.5228 2.23858 34.1421 5.85786C37.7614 9.47715 40 14.4772 40 20Z" fill="#4D5AE5"/>
<g clip-path="url(#clip0_297053_2169)">
<path d="M31.9763 15.0561C31.9201 13.7809 31.7139 12.9042 31.4185 12.1445C31.1137 11.3381 30.6449 10.6162 30.0306 10.016C29.4305 9.40652 28.7038 8.93292 27.9068 8.63294C27.1427 8.33753 26.2706 8.13131 24.9954 8.07509C23.7106 8.0141 23.3028 8 20.0443 8C16.7859 8 16.378 8.0141 15.0981 8.07033C13.8228 8.12655 12.9461 8.33295 12.1867 8.62817C11.3801 8.93292 10.6582 9.40176 10.058 10.016C9.44852 10.6162 8.9751 11.3429 8.67493 12.1399C8.37952 12.9042 8.1733 13.7761 8.11708 15.0513C8.05609 16.336 8.04199 16.7439 8.04199 20.0023C8.04199 23.2608 8.05609 23.6686 8.11232 24.9486C8.16854 26.2238 8.37494 27.1005 8.67035 27.8602C8.9751 28.6666 9.44852 29.3885 10.058 29.9887C10.6582 30.5982 11.3849 31.0718 12.1819 31.3718C12.9461 31.6672 13.8181 31.8734 15.0935 31.9296C16.3733 31.986 16.7813 31.9999 20.0397 31.9999C23.2982 31.9999 23.706 31.986 24.986 31.9296C26.2612 31.8734 27.1379 31.6672 27.8974 31.3718C29.5103 30.7482 30.7855 29.4729 31.4091 27.8602C31.7044 27.096 31.9108 26.2238 31.967 24.9486C32.0232 23.6686 32.0373 23.2608 32.0373 20.0023C32.0373 16.7439 32.0326 16.336 31.9763 15.0561ZM29.8151 24.8549C29.7634 26.027 29.5666 26.6599 29.4025 27.0819C28.9992 28.1274 28.1694 28.9572 27.1238 29.3605C26.7019 29.5246 26.0644 29.7215 24.8968 29.7729C23.631 29.8293 23.2513 29.8433 20.0491 29.8433C16.8469 29.8433 16.4625 29.8293 15.2012 29.7729C14.0291 29.7215 13.3961 29.5246 12.9742 29.3605C12.4539 29.1682 11.9803 28.8634 11.5958 28.4649C11.1973 28.0758 10.8926 27.6069 10.7003 27.0866C10.5362 26.6647 10.3393 26.027 10.2879 24.8596C10.2314 23.5937 10.2175 23.2139 10.2175 20.0117C10.2175 16.8095 10.2314 16.425 10.2879 15.1639C10.3393 13.9918 10.5362 13.3589 10.7003 12.9369C10.8926 12.4165 11.1973 11.943 11.6006 11.5584C11.9896 11.1599 12.4584 10.8552 12.9789 10.6631C13.4009 10.499 14.0386 10.3021 15.2059 10.2504C16.4718 10.1942 16.8516 10.1801 20.0537 10.1801C23.2606 10.1801 23.6403 10.1942 24.9016 10.2504C26.0737 10.3021 26.7066 10.499 27.1286 10.6631C27.6489 10.8552 28.1225 11.1599 28.5069 11.5584C28.9054 11.9476 29.2102 12.4165 29.4025 12.9369C29.5666 13.3589 29.7634 13.9964 29.8151 15.1639C29.8713 16.4298 29.8854 16.8095 29.8854 20.0117C29.8854 23.2139 29.8713 23.589 29.8151 24.8549Z" fill="#F4F4FD"/>
<path d="M20.0442 13.837C16.6405 13.837 13.8789 16.5984 13.8789 20.0023C13.8789 23.4062 16.6405 26.1676 20.0442 26.1676C23.448 26.1676 26.2094 23.4062 26.2094 20.0023C26.2094 16.5984 23.448 13.837 20.0442 13.837ZM20.0442 24.0016C17.836 24.0016 16.0449 22.2106 16.0449 20.0023C16.0449 17.794 17.836 16.003 20.0442 16.003C22.2525 16.003 24.0434 17.794 24.0434 20.0023C24.0434 22.2106 22.2525 24.0016 20.0442 24.0016Z" fill="#F4F4FD"/>
<path d="M27.8935 13.5934C27.8935 14.3882 27.249 15.0327 26.454 15.0327C25.6591 15.0327 25.0146 14.3882 25.0146 13.5934C25.0146 12.7983 25.6591 12.1541 26.454 12.1541C27.249 12.1541 27.8935 12.7983 27.8935 13.5934Z" fill="#F4F4FD"/>
</g>
<defs>
<clipPath id="clip0_297053_2169">
<rect width="24" height="24" fill="white" transform="translate(8 8)"/>
</clipPath>
</defs>
</svg>
