<svg width="40" height="40" viewBox="0 0 40 40" fill="none" xmlns="http://www.w3.org/2000/svg">
<path d="M40 20C40 25.5228 37.7614 30.5228 34.1421 34.1421C30.5228 37.7614 25.5228 40 20 40C14.4772 40 9.47715 37.7614 5.85786 34.1421C2.23858 30.5228 0 25.5228 0 20C0 14.4772 2.23858 9.47715 5.85786 5.85786C9.47715 2.23858 14.4772 0 20 0C25.5228 0 30.5228 2.23858 34.1421 5.85786C37.7614 9.47715 40 14.4772 40 20Z" fill="#4D5AE5"/>
<g clip-path="url(#clip0_297053_2172)">
<path d="M31.9943 32.0001V31.9991H32.0003V23.1971C32.0003 18.8911 31.0733 15.5741 26.0393 15.5741C23.6193 15.5741 21.9953 16.9021 21.3323 18.1611H21.2623V15.9761H16.4893V31.9991H21.4593V24.0651C21.4593 21.9761 21.8553 19.9561 24.4423 19.9561C26.9913 19.9561 27.0293 22.3401 27.0293 24.1991V32.0001H31.9943Z" fill="#F4F4FD"/>
<path d="M8.39648 15.9769H13.3725V31.9999H8.39648V15.9769Z" fill="#F4F4FD"/>
<path d="M10.882 8C9.291 8 8 9.291 8 10.882C8 12.473 9.291 13.791 10.882 13.791C12.473 13.791 13.764 12.473 13.764 10.882C13.763 9.291 12.472 8 10.882 8V8Z" fill="#F4F4FD"/>
</g>
<defs>
<clipPath id="clip0_297053_2172">
<rect width="24" height="24" fill="white" transform="translate(8 8)"/>
</clipPath>
</defs>
</svg>
